<svg xmlns="http://www.w3.org/2000/svg" viewBox="0 0 820 360" fill="none">
  <style>
    text {
      font-family: "SF Pro Display", "SF Pro Text", Inter, Arial, sans-serif;
    }
  </style>

  <rect width="820" height="360" rx="24" fill="#09090b"/>
  <rect x="1" y="1" width="818" height="358" rx="23" stroke="#1f2937"/>

  <rect x="24" y="22" width="118" height="24" rx="12" fill="#0f2748" stroke="#38bdf8" stroke-opacity="0.4"/>
  <text x="83" y="38" text-anchor="middle" font-size="9.5" font-weight="700" letter-spacing="0.16em" fill="#bae6fd">FOUR PILLARS</text>

  <rect x="24" y="67" width="179" height="232" rx="22" fill="#020617" opacity="0.28"/>
  <rect x="24" y="62" width="179" height="232" rx="22" fill="#0b1325" stroke="#1e293b"/>
  <rect x="42" y="82" width="143" height="60" rx="16" fill="#09111d" stroke="#1f2937"/>
  <rect x="56" y="99" width="115" height="28" rx="12" fill="#0f172a" stroke="#14532d"/>
  <circle cx="80" cy="113" r="6" fill="#22c55e"/>
  <circle cx="112" cy="113" r="6" fill="#ef4444"/>
  <circle cx="144" cy="113" r="6" fill="#f59e0b"/>
  <text x="113" y="133" text-anchor="middle" font-size="7.4" font-weight="700" fill="#94a3b8">ONE GLANCE</text>
  <text x="42" y="170" font-size="13" font-weight="700" fill="#f8fafc">VISUAL LAYER</text>
  <text x="42" y="196" font-size="11" fill="#cbd5e1">One glanceable stack.</text>
  <text x="42" y="214" font-size="11" fill="#94a3b8">Green means working.</text>
  <text x="42" y="232" font-size="11" fill="#94a3b8">Red means done.</text>
  <text x="42" y="250" font-size="11" fill="#94a3b8">Yellow means you.</text>

  <rect x="219" y="67" width="179" height="232" rx="22" fill="#020617" opacity="0.28"/>
  <rect x="219" y="62" width="179" height="232" rx="22" fill="#0b1325" stroke="#1e293b"/>
  <rect x="237" y="82" width="143" height="60" rx="16" fill="#09111d" stroke="#1f2937"/>
  <rect x="251" y="98" width="44" height="28" rx="12" fill="#0f2748" stroke="#1e3a8a"/>
  <text x="273" y="116" text-anchor="middle" font-size="7.2" font-weight="700" fill="#93c5fd">output</text>
  <rect x="321" y="98" width="44" height="28" rx="12" fill="#052e16" stroke="#166534"/>
  <text x="343" y="116" text-anchor="middle" font-size="7.2" font-weight="700" fill="#bbf7d0">next</text>
  <path d="M295 112H321" stroke="#38bdf8" stroke-width="1.8"/>
  <path d="M313 106L321 112L313 118" fill="none" stroke="#38bdf8" stroke-width="1.8" stroke-linecap="round" stroke-linejoin="round"/>
  <text x="237" y="170" font-size="12.2" font-weight="700" fill="#f8fafc">
    <tspan x="237" dy="0">INTUITIVE</tspan>
    <tspan x="237" dy="15">HANDOFFS</tspan>
  </text>
  <text x="237" y="210" font-size="11" fill="#cbd5e1">Pass output by talking.</text>
  <text x="237" y="228" font-size="11" fill="#94a3b8">Tap the tile.</text>
  <text x="237" y="246" font-size="11" fill="#94a3b8">Say what should happen next.</text>

  <rect x="414" y="67" width="179" height="232" rx="22" fill="#020617" opacity="0.28"/>
  <rect x="414" y="62" width="179" height="232" rx="22" fill="#0b1325" stroke="#1e293b"/>
  <rect x="432" y="82" width="143" height="60" rx="16" fill="#09111d" stroke="#1f2937"/>
  <rect x="444" y="102" width="42" height="20" rx="10" fill="#0f2748"/>
  <text x="465" y="115" text-anchor="middle" font-size="6.8" font-weight="700" fill="#93c5fd">Claude</text>
  <rect x="492" y="102" width="40" height="20" rx="10" fill="#052e16"/>
  <text x="512" y="115" text-anchor="middle" font-size="6.8" font-weight="700" fill="#6ee7b7">Codex</text>
  <rect x="538" y="102" width="58" height="20" rx="10" fill="#20163a"/>
  <text x="567" y="115" text-anchor="middle" font-size="6.8" font-weight="700" fill="#ddd6fe">OpenClaw</text>
  <text x="432" y="170" font-size="12.2" font-weight="700" fill="#f8fafc">
    <tspan x="432" dy="0">MULTI-MODEL</tspan>
    <tspan x="432" dy="15">SYMPHONY</tspan>
  </text>
  <text x="432" y="210" font-size="11" fill="#cbd5e1">Claude, Codex, OpenClaw</text>
  <text x="432" y="228" font-size="11" fill="#94a3b8">in the same grid.</text>
  <text x="432" y="246" font-size="11" fill="#94a3b8">Each does what it is best at.</text>

  <rect x="609" y="67" width="179" height="232" rx="22" fill="#020617" opacity="0.28"/>
  <rect x="609" y="62" width="179" height="232" rx="22" fill="#0b1325" stroke="#1e293b"/>
  <rect x="627" y="82" width="143" height="60" rx="16" fill="#09111d" stroke="#1f2937"/>
  <rect x="644" y="99" width="32" height="22" rx="7" fill="#0f172a" stroke="#334155"/>
  <rect x="650" y="104" width="20" height="10" rx="3" fill="#1e293b"/>
  <rect x="721" y="99" width="32" height="22" rx="7" fill="#0f172a" stroke="#334155"/>
  <rect x="727" y="104" width="20" height="10" rx="3" fill="#1e293b"/>
  <path d="M676 110H721" stroke="#a78bfa" stroke-width="1.8"/>
  <circle cx="699" cy="110" r="3" fill="#a78bfa"/>
  <text x="627" y="170" font-size="12.2" font-weight="700" fill="#f8fafc">
    <tspan x="627" dy="0">MULTI-MACHINE</tspan>
    <tspan x="627" dy="15">NETWORK</tspan>
  </text>
  <text x="627" y="210" font-size="11" fill="#cbd5e1">Multiple computers.</text>
  <text x="627" y="228" font-size="11" fill="#94a3b8">One dashboard.</text>
  <text x="627" y="246" font-size="11" fill="#94a3b8">Route by machine strength.</text>

  <text x="410" y="329" text-anchor="middle" font-size="12.5" font-weight="600" fill="#f8fafc">One person. Multiple models. Multiple machines. The output of a team.</text>
</svg>
