<svg xmlns="http://www.w3.org/2000/svg" viewBox="0 0 860 340" fill="none">
  <defs>
    <filter id="shadow" x="-20%" y="-20%" width="140%" height="160%">
      <feDropShadow dx="0" dy="12" stdDeviation="18" flood-color="#020617" flood-opacity="0.35"/>
      <feDropShadow dx="0" dy="4" stdDeviation="8" flood-color="#020617" flood-opacity="0.16"/>
    </filter>
  </defs>
  <style>
    text {
      font-family: "SF Pro Display", "SF Pro Text", Inter, Arial, sans-serif;
    }
  </style>

  <rect width="860" height="340" rx="24" fill="#09090b"/>
  <rect x="1" y="1" width="858" height="338" rx="23" stroke="#1f2937"/>

  <rect x="24" y="22" width="118" height="24" rx="12" fill="#0f2748" stroke="#38bdf8" stroke-opacity="0.4"/>
  <text x="83" y="38" text-anchor="middle" font-size="9.5" font-weight="700" letter-spacing="0.16em" fill="#bae6fd">FOUR PILLARS</text>

  <g filter="url(#shadow)">
    <rect x="24" y="64" width="191" height="218" rx="22" fill="#0b1325" stroke="#1e293b"/>
    <rect x="42" y="84" width="155" height="58" rx="16" fill="#09111d" stroke="#1f2937"/>
    <rect x="62" y="99" width="115" height="28" rx="12" fill="#0f172a" stroke="#14532d"/>
    <circle cx="86" cy="113" r="6" fill="#22c55e"/>
    <circle cx="118" cy="113" r="6" fill="#ef4444"/>
    <circle cx="150" cy="113" r="6" fill="#f59e0b"/>
    <text x="119" y="132" text-anchor="middle" font-size="7.2" font-weight="700" fill="#94a3b8">ONE STACK</text>
    <text x="42" y="168" font-size="12.2" font-weight="700" fill="#f8fafc">VISUAL LAYER</text>
    <text x="42" y="194" font-size="10" fill="#94a3b8">One glanceable stack.</text>
    <text x="42" y="210" font-size="10" fill="#94a3b8">Green means working.</text>
    <text x="42" y="226" font-size="10" fill="#94a3b8">Red means done. Yellow means you.</text>
  </g>

  <g filter="url(#shadow)">
    <rect x="231" y="64" width="191" height="218" rx="22" fill="#0b1325" stroke="#1e293b"/>
    <rect x="249" y="84" width="155" height="58" rx="16" fill="#09111d" stroke="#1f2937"/>
    <rect x="263" y="98" width="46" height="30" rx="12" fill="#0f2748" stroke="#1e3a8a"/>
    <text x="286" y="116" text-anchor="middle" font-size="7" font-weight="700" fill="#93c5fd">done</text>
    <rect x="344" y="98" width="46" height="30" rx="12" fill="#052e16" stroke="#166534"/>
    <text x="367" y="116" text-anchor="middle" font-size="7" font-weight="700" fill="#bbf7d0">next</text>
    <path d="M309 113H344" stroke="#38bdf8" stroke-width="1.8"/>
    <path d="M336 107L344 113L336 119" fill="none" stroke="#38bdf8" stroke-width="1.8" stroke-linecap="round" stroke-linejoin="round"/>
    <text x="249" y="168" font-size="12.2" font-weight="700" fill="#f8fafc">INTUITIVE HANDOFFS</text>
    <text x="249" y="194" font-size="10" fill="#94a3b8">Pass output between agents</text>
    <text x="249" y="210" font-size="10" fill="#94a3b8">by talking.</text>
    <text x="249" y="226" font-size="10" fill="#94a3b8">Tap the tile, say what to do next.</text>
  </g>

  <g filter="url(#shadow)">
    <rect x="438" y="64" width="191" height="218" rx="22" fill="#0b1325" stroke="#1e293b"/>
    <rect x="456" y="84" width="155" height="58" rx="16" fill="#09111d" stroke="#1f2937"/>
    <rect x="470" y="102" width="44" height="20" rx="10" fill="#0f2748"/>
    <text x="492" y="115" text-anchor="middle" font-size="6.6" font-weight="700" fill="#93c5fd">Claude</text>
    <rect x="520" y="102" width="42" height="20" rx="10" fill="#052e16"/>
    <text x="541" y="115" text-anchor="middle" font-size="6.6" font-weight="700" fill="#6ee7b7">Codex</text>
    <rect x="568" y="102" width="52" height="20" rx="10" fill="#20163a"/>
    <text x="594" y="115" text-anchor="middle" font-size="6.6" font-weight="700" fill="#ddd6fe">OpenClaw</text>
    <text x="456" y="168" font-size="12.2" font-weight="700" fill="#f8fafc">MULTI-MODEL SYMPHONY</text>
    <text x="456" y="194" font-size="10" fill="#94a3b8">Claude, Codex, OpenClaw</text>
    <text x="456" y="210" font-size="10" fill="#94a3b8">in the same grid.</text>
    <text x="456" y="226" font-size="10" fill="#94a3b8">Each does what it is best at.</text>
  </g>

  <g filter="url(#shadow)">
    <rect x="645" y="64" width="191" height="218" rx="22" fill="#0b1325" stroke="#1e293b"/>
    <rect x="663" y="84" width="155" height="58" rx="16" fill="#09111d" stroke="#1f2937"/>
    <rect x="683" y="98" width="34" height="22" rx="7" fill="#0f172a" stroke="#334155"/>
    <rect x="690" y="104" width="20" height="10" rx="3" fill="#1e293b"/>
    <rect x="764" y="98" width="34" height="22" rx="7" fill="#0f172a" stroke="#334155"/>
    <rect x="771" y="104" width="20" height="10" rx="3" fill="#1e293b"/>
    <path d="M717 109H764" stroke="#a78bfa" stroke-width="1.8"/>
    <circle cx="741" cy="109" r="3" fill="#a78bfa"/>
    <text x="663" y="168" font-size="12.2" font-weight="700" fill="#f8fafc">MULTI-MACHINE NETWORK</text>
    <text x="663" y="194" font-size="10" fill="#94a3b8">Multiple computers, one dashboard.</text>
    <text x="663" y="210" font-size="10" fill="#94a3b8">Route by what each machine</text>
    <text x="663" y="226" font-size="10" fill="#94a3b8">is good at.</text>
  </g>

  <text x="430" y="314" text-anchor="middle" font-size="12" font-weight="600" fill="#f8fafc">One person. Multiple models. Multiple machines. The output of a team.</text>
</svg>
