<svg xmlns="http://www.w3.org/2000/svg" viewBox="0 0 1200 720" fill="none">
  <defs>
    <linearGradient id="bg" x1="80" y1="40" x2="1120" y2="680" gradientUnits="userSpaceOnUse">
      <stop offset="0%" stop-color="#0f172a"/>
      <stop offset="52%" stop-color="#09090b"/>
      <stop offset="100%" stop-color="#050816"/>
    </linearGradient>
    <radialGradient id="haloBlue" cx="0" cy="0" r="1" gradientUnits="userSpaceOnUse" gradientTransform="translate(260 96) rotate(34) scale(360 280)">
      <stop offset="0%" stop-color="#38bdf8" stop-opacity="0.30"/>
      <stop offset="100%" stop-color="#38bdf8" stop-opacity="0"/>
    </radialGradient>
    <radialGradient id="haloGreen" cx="0" cy="0" r="1" gradientUnits="userSpaceOnUse" gradientTransform="translate(980 620) rotate(12) scale(360 280)">
      <stop offset="0%" stop-color="#34d399" stop-opacity="0.24"/>
      <stop offset="100%" stop-color="#34d399" stop-opacity="0"/>
    </radialGradient>
    <linearGradient id="shell" x1="40" y1="150" x2="1160" y2="650" gradientUnits="userSpaceOnUse">
      <stop offset="0%" stop-color="#0d1324" stop-opacity="0.98"/>
      <stop offset="100%" stop-color="#070b14" stop-opacity="0.98"/>
    </linearGradient>
    <linearGradient id="panel" x1="0" y1="170" x2="0" y2="620" gradientUnits="userSpaceOnUse">
      <stop offset="0%" stop-color="#101827"/>
      <stop offset="100%" stop-color="#0a0f1d"/>
    </linearGradient>
    <linearGradient id="panelSoft" x1="0" y1="170" x2="0" y2="620" gradientUnits="userSpaceOnUse">
      <stop offset="0%" stop-color="#121826"/>
      <stop offset="100%" stop-color="#0b1120"/>
    </linearGradient>
    <linearGradient id="blueCard" x1="0" y1="0" x2="1" y2="1">
      <stop offset="0%" stop-color="#0f2748"/>
      <stop offset="100%" stop-color="#0a172e"/>
    </linearGradient>
    <linearGradient id="greenCard" x1="0" y1="0" x2="1" y2="1">
      <stop offset="0%" stop-color="#0c2a23"/>
      <stop offset="100%" stop-color="#081914"/>
    </linearGradient>
    <linearGradient id="amberCard" x1="0" y1="0" x2="1" y2="1">
      <stop offset="0%" stop-color="#31230e"/>
      <stop offset="100%" stop-color="#17110b"/>
    </linearGradient>
    <linearGradient id="redCard" x1="0" y1="0" x2="1" y2="1">
      <stop offset="0%" stop-color="#351517"/>
      <stop offset="100%" stop-color="#170b0d"/>
    </linearGradient>
    <linearGradient id="screen" x1="420" y1="220" x2="726" y2="540" gradientUnits="userSpaceOnUse">
      <stop offset="0%" stop-color="#0e1b36"/>
      <stop offset="100%" stop-color="#09101d"/>
    </linearGradient>
    <pattern id="grid" width="42" height="42" patternUnits="userSpaceOnUse">
      <path d="M42 0H0V42" fill="none" stroke="#94a3b8" stroke-opacity="0.08"/>
    </pattern>
    <filter id="shadow" x="-20%" y="-20%" width="140%" height="160%">
      <feDropShadow dx="0" dy="22" stdDeviation="28" flood-color="#020617" flood-opacity="0.65"/>
      <feDropShadow dx="0" dy="8" stdDeviation="10" flood-color="#0f172a" flood-opacity="0.35"/>
    </filter>
    <filter id="glowBlue" x="-50%" y="-50%" width="200%" height="200%">
      <feGaussianBlur stdDeviation="18" result="blur"/>
      <feColorMatrix in="blur" type="matrix" values="1 0 0 0 0  0 0.9 0 0 0  0 0 1 0 0  0 0 0 0.42 0"/>
    </filter>
    <filter id="glowGreen" x="-50%" y="-50%" width="200%" height="200%">
      <feGaussianBlur stdDeviation="18" result="blur"/>
      <feColorMatrix in="blur" type="matrix" values="0 0 0 0 0.2  0 1 0 0 0.75  0 0 0 0 0.55  0 0 0 0.42 0"/>
    </filter>
  </defs>
  <style>
    text {
      font-family: "SF Pro Display", "SF Pro Text", Inter, Arial, sans-serif;
    }
  </style>

  <rect width="1200" height="720" rx="28" fill="url(#bg)"/>
  <rect width="1200" height="720" rx="28" fill="url(#grid)"/>
  <ellipse cx="260" cy="96" rx="360" ry="280" fill="url(#haloBlue)"/>
  <ellipse cx="980" cy="620" rx="360" ry="280" fill="url(#haloGreen)"/>

  <g filter="url(#shadow)">
    <rect x="40" y="146" width="1120" height="524" rx="34" fill="url(#shell)" stroke="#1e293b" stroke-width="1.2"/>
  </g>

  <rect x="72" y="74" width="142" height="32" rx="16" fill="#0f2748" stroke="#38bdf8" stroke-opacity="0.35"/>
  <text x="143" y="94" text-anchor="middle" font-size="11" font-weight="700" letter-spacing="0.16em" fill="#bae6fd">LOOM SYSTEM MAP</text>
  <text x="72" y="134" font-size="38" font-weight="700" fill="#f8fafc">The stack is finally visible.</text>
  <text x="72" y="168" font-size="16" fill="#94a3b8">Terminal order, live state, and next action share one dark control surface instead of four disconnected windows.</text>

  <rect x="72" y="198" width="308" height="420" rx="28" fill="url(#panel)" stroke="#1f2937"/>
  <text x="104" y="236" font-size="14" font-weight="700" fill="#f8fafc">1. Physical terminals</text>
  <text x="104" y="258" font-size="11" fill="#94a3b8">Loom preserves the screen order you already remember.</text>

  <rect x="104" y="286" width="244" height="68" rx="18" fill="url(#blueCard)" stroke="#334155"/>
  <circle cx="130" cy="320" r="7" fill="#38bdf8"/>
  <text x="148" y="316" font-size="11" font-weight="700" fill="#e0f2fe">Q1  Claude</text>
  <text x="148" y="334" font-size="10" fill="#bfdbfe">Ship the launch page polish</text>
  <rect x="252" y="304" width="72" height="20" rx="10" fill="#0f172a"/>
  <text x="288" y="317" text-anchor="middle" font-size="8.5" font-weight="700" fill="#93c5fd">Ready to review</text>

  <rect x="104" y="370" width="244" height="88" rx="18" fill="url(#greenCard)" stroke="#10b981" stroke-width="1.2"/>
  <circle cx="130" cy="406" r="7" fill="#34d399"/>
  <text x="148" y="402" font-size="11" font-weight="700" fill="#d1fae5">Q2  Codex</text>
  <text x="148" y="420" font-size="10" fill="#a7f3d0">Trace the state handoff edge case</text>
  <text x="148" y="438" font-size="9" fill="#6ee7b7">apps/daemon  preserve worker ordering</text>
  <rect x="148" y="446" width="156" height="6" rx="3" fill="#052e2b"/>
  <rect x="148" y="446" width="114" height="6" rx="3" fill="#34d399"/>

  <rect x="104" y="474" width="244" height="68" rx="18" fill="url(#amberCard)" stroke="#f59e0b"/>
  <circle cx="130" cy="508" r="7" fill="#f59e0b"/>
  <text x="148" y="504" font-size="11" font-weight="700" fill="#fde68a">Q3  Gemini</text>
  <text x="148" y="522" font-size="10" fill="#fcd34d">Research new model pricing</text>
  <rect x="254" y="492" width="68" height="20" rx="10" fill="#1c1917"/>
  <text x="288" y="505" text-anchor="middle" font-size="8.5" font-weight="700" fill="#fbbf24">Needs steer</text>

  <rect x="104" y="558" width="244" height="36" rx="18" fill="url(#redCard)" stroke="#ef4444" stroke-opacity="0.55"/>
  <circle cx="130" cy="576" r="7" fill="#fb7185"/>
  <text x="148" y="580" font-size="10" font-weight="700" fill="#fecdd3">Q4  Open slot for a hotfix pass</text>

  <rect x="412" y="198" width="342" height="420" rx="28" fill="url(#panelSoft)" stroke="#1f2937"/>
  <text x="444" y="236" font-size="14" font-weight="700" fill="#f8fafc">2. Mirrored command deck</text>
  <text x="444" y="258" font-size="11" fill="#94a3b8">Desktop and phone show the same stack, so the second worker is still the second worker everywhere.</text>

  <rect x="444" y="286" width="278" height="244" rx="24" fill="url(#screen)" stroke="#334155"/>
  <rect x="462" y="304" width="242" height="32" rx="16" fill="#0b1325" stroke="#1e293b"/>
  <circle cx="482" cy="320" r="4" fill="#34d399"/>
  <text x="496" y="324" font-size="10" font-weight="700" fill="#f8fafc">LOOM  Dashboard</text>
  <rect x="610" y="310" width="76" height="18" rx="9" fill="#0f2748"/>
  <text x="648" y="322" text-anchor="middle" font-size="8" font-weight="700" fill="#bae6fd">4 workers live</text>

  <rect x="468" y="352" width="230" height="44" rx="16" fill="#111827" stroke="#1f2937"/>
  <circle cx="490" cy="374" r="5" fill="#38bdf8"/>
  <text x="504" y="370" font-size="9.5" font-weight="700" fill="#e0f2fe">Q1</text>
  <text x="532" y="370" font-size="9" fill="#cbd5e1">Launch page polish</text>
  <text x="532" y="384" font-size="8" fill="#64748b">ready for human review</text>

  <g filter="url(#glowGreen)">
    <rect x="462" y="404" width="242" height="64" rx="20" fill="#0d1f1a"/>
  </g>
  <rect x="468" y="410" width="230" height="52" rx="18" fill="#09251f" stroke="#34d399" stroke-width="1.2"/>
  <circle cx="490" cy="436" r="5" fill="#34d399"/>
  <text x="504" y="432" font-size="9.5" font-weight="700" fill="#d1fae5">Q2</text>
  <text x="532" y="432" font-size="9" fill="#bbf7d0">State handoff edge case</text>
  <text x="532" y="446" font-size="8" fill="#6ee7b7">Preserve slot order through restart</text>

  <rect x="468" y="476" width="230" height="44" rx="16" fill="#19121a" stroke="#374151"/>
  <circle cx="490" cy="498" r="5" fill="#f59e0b"/>
  <text x="504" y="494" font-size="9.5" font-weight="700" fill="#fde68a">Q3</text>
  <text x="532" y="494" font-size="9" fill="#f3f4f6">Research model pricing</text>
  <text x="532" y="508" font-size="8" fill="#9ca3af">waiting for a routing note</text>

  <rect x="610" y="362" width="92" height="148" rx="26" fill="#08111f" stroke="#334155"/>
  <rect x="640" y="372" width="32" height="6" rx="3" fill="#334155"/>
  <text x="656" y="398" text-anchor="middle" font-size="8.5" font-weight="700" fill="#f8fafc">Phone</text>
  <text x="656" y="412" text-anchor="middle" font-size="7" fill="#94a3b8">same ordering</text>
  <rect x="626" y="430" width="60" height="18" rx="9" fill="#0f2748"/>
  <text x="656" y="442" text-anchor="middle" font-size="7" font-weight="700" fill="#bae6fd">LOOM</text>
  <rect x="626" y="454" width="60" height="16" rx="8" fill="#111827" stroke="#1f2937"/>
  <text x="656" y="465" text-anchor="middle" font-size="6.6" fill="#cbd5e1">Q1 review</text>
  <rect x="626" y="474" width="60" height="24" rx="10" fill="#09251f" stroke="#34d399"/>
  <text x="656" y="486" text-anchor="middle" font-size="6.6" fill="#d1fae5">Q2 active</text>
  <text x="656" y="494" text-anchor="middle" font-size="5.6" fill="#6ee7b7">handoff fix</text>

  <rect x="786" y="198" width="342" height="420" rx="28" fill="url(#panel)" stroke="#1f2937"/>
  <text x="818" y="236" font-size="14" font-weight="700" fill="#f8fafc">3. Why Loom feels controlled</text>
  <text x="818" y="258" font-size="11" fill="#94a3b8">Polish matters because the dashboard is where routing, memory, and approvals converge.</text>

  <rect x="818" y="288" width="126" height="116" rx="20" fill="#0f2748" stroke="#38bdf8" stroke-opacity="0.45"/>
  <text x="840" y="318" font-size="12" font-weight="700" fill="#e0f2fe">Spot the blocker</text>
  <text x="840" y="338" font-size="9" fill="#bae6fd">The bright card is the active issue, not one more line in a log tail.</text>
  <circle cx="918" cy="318" r="10" fill="#38bdf8" fill-opacity="0.16" stroke="#38bdf8"/>
  <text x="918" y="322" text-anchor="middle" font-size="9" font-weight="700" fill="#e0f2fe">1</text>

  <rect x="960" y="288" width="136" height="116" rx="20" fill="#09251f" stroke="#34d399" stroke-opacity="0.45"/>
  <text x="982" y="318" font-size="12" font-weight="700" fill="#d1fae5">Relay once</text>
  <text x="982" y="338" font-size="9" fill="#a7f3d0">One message reaches the right worker because the order and current action are already visible.</text>
  <circle cx="1070" cy="318" r="10" fill="#34d399" fill-opacity="0.16" stroke="#34d399"/>
  <text x="1070" y="322" text-anchor="middle" font-size="9" font-weight="700" fill="#d1fae5">2</text>

  <rect x="818" y="422" width="278" height="166" rx="24" fill="#0a101c" stroke="#1f2937"/>
  <text x="844" y="454" font-size="12" font-weight="700" fill="#f8fafc">Control layer</text>
  <text x="844" y="476" font-size="9.5" fill="#94a3b8">The visuals sit on top of real product plumbing, not static mock data.</text>

  <rect x="844" y="498" width="72" height="24" rx="12" fill="#111827" stroke="#334155"/>
  <text x="880" y="514" text-anchor="middle" font-size="8.2" font-weight="700" fill="#cbd5e1">Routing</text>
  <rect x="924" y="498" width="78" height="24" rx="12" fill="#111827" stroke="#334155"/>
  <text x="963" y="514" text-anchor="middle" font-size="8.2" font-weight="700" fill="#cbd5e1">Watchdog</text>
  <rect x="1010" y="498" width="64" height="24" rx="12" fill="#111827" stroke="#334155"/>
  <text x="1042" y="514" text-anchor="middle" font-size="8.2" font-weight="700" fill="#cbd5e1">Memory</text>

  <text x="844" y="546" font-size="9.2" fill="#e2e8f0">Visible order keeps terminal space and dashboard space mentally identical.</text>
  <text x="844" y="564" font-size="9.2" fill="#e2e8f0">Status chips compress logs into glanceable progress, blockers, and completions.</text>
  <text x="844" y="582" font-size="9.2" fill="#e2e8f0">Project learnings turn every resolved issue into a faster next session.</text>

  <path d="M364 408C390 408 390 408 412 408" stroke="#334155" stroke-width="2" stroke-dasharray="6 6"/>
  <path d="M754 408C776 408 776 408 786 408" stroke="#334155" stroke-width="2" stroke-dasharray="6 6"/>
  <text x="386" y="390" text-anchor="middle" font-size="9" fill="#94a3b8">mirrors</text>
  <text x="770" y="390" text-anchor="middle" font-size="9" fill="#94a3b8">explains</text>

  <line x1="72" y1="640" x2="1128" y2="640" stroke="#1f2937"/>
  <text x="600" y="666" text-anchor="middle" font-size="13" font-weight="600" fill="#f8fafc">Stacked terminals become a product the moment order, state, and routing are visible.</text>
</svg>
